<mxfile host="app.diagrams.net" agent="Mozilla/5.0 (Macintosh; Intel Mac OS X 10.15; rv:132.0) Gecko/20100101 Firefox/132.0" version="24.8.3">
  <diagram name="Seite-1" id="eh7jZPO-vAaCTIac7rbb">
    <mxGraphModel dx="2188" dy="858" grid="1" gridSize="10" guides="1" tooltips="1" connect="1" arrows="1" fold="1" page="1" pageScale="1" pageWidth="1169" pageHeight="827" math="0" shadow="0">
      <root>
        <mxCell id="0" />
        <mxCell id="1" parent="0" />
        <mxCell id="nP3ZICuhKG0Z91j2FClM-1" value="Titel und Abstract extrahieren" style="rounded=0;whiteSpace=wrap;html=1;fontFamily=Libertinus Serif;fontSize=14;" vertex="1" parent="1">
          <mxGeometry x="280" y="480" width="120" height="60" as="geometry" />
        </mxCell>
        <mxCell id="nP3ZICuhKG0Z91j2FClM-2" value="arXiv pdf" style="shape=note;whiteSpace=wrap;html=1;backgroundOutline=1;darkOpacity=0.05;fontFamily=Libertinus Serif;fontSize=14;" vertex="1" parent="1">
          <mxGeometry x="110" y="470" width="70" height="80" as="geometry" />
        </mxCell>
        <mxCell id="nP3ZICuhKG0Z91j2FClM-3" value="Embedding-Modell &lt;br&gt;SPECTER" style="rounded=0;whiteSpace=wrap;html=1;fontSize=14;fontFamily=Libertinus Serif;" vertex="1" parent="1">
          <mxGeometry x="500" y="480" width="120" height="60" as="geometry" />
        </mxCell>
        <mxCell id="nP3ZICuhKG0Z91j2FClM-5" value="DB&lt;div style=&quot;font-size: 14px;&quot;&gt;&lt;br style=&quot;font-size: 14px;&quot;&gt;&lt;/div&gt;" style="shape=cylinder3;whiteSpace=wrap;html=1;boundedLbl=1;backgroundOutline=1;size=15;fontFamily=Libertinus Serif;fontSize=14;" vertex="1" parent="1">
          <mxGeometry x="720" y="470" width="60" height="80" as="geometry" />
        </mxCell>
        <mxCell id="nP3ZICuhKG0Z91j2FClM-10" value="" style="endArrow=classic;html=1;rounded=0;fontFamily=Libertinus Serif;" edge="1" parent="1" source="nP3ZICuhKG0Z91j2FClM-1" target="nP3ZICuhKG0Z91j2FClM-3">
          <mxGeometry relative="1" as="geometry">
            <mxPoint x="400" y="620" as="sourcePoint" />
            <mxPoint x="500" y="620" as="targetPoint" />
          </mxGeometry>
        </mxCell>
        <mxCell id="nP3ZICuhKG0Z91j2FClM-11" value="Titel, Abstract" style="edgeLabel;resizable=0;html=1;;align=center;verticalAlign=middle;fontFamily=Libertinus Serif;" connectable="0" vertex="1" parent="nP3ZICuhKG0Z91j2FClM-10">
          <mxGeometry relative="1" as="geometry">
            <mxPoint y="-8" as="offset" />
          </mxGeometry>
        </mxCell>
        <mxCell id="nP3ZICuhKG0Z91j2FClM-13" value="" style="endArrow=classic;html=1;rounded=0;fontFamily=Libertinus Serif;" edge="1" parent="1" source="nP3ZICuhKG0Z91j2FClM-2" target="nP3ZICuhKG0Z91j2FClM-1">
          <mxGeometry relative="1" as="geometry">
            <mxPoint x="180" y="509.63" as="sourcePoint" />
            <mxPoint x="280" y="509.63" as="targetPoint" />
          </mxGeometry>
        </mxCell>
        <mxCell id="nP3ZICuhKG0Z91j2FClM-14" value="pdf-Datei" style="edgeLabel;resizable=0;html=1;;align=center;verticalAlign=middle;fontFamily=Libertinus Serif;" connectable="0" vertex="1" parent="nP3ZICuhKG0Z91j2FClM-13">
          <mxGeometry relative="1" as="geometry">
            <mxPoint y="-8" as="offset" />
          </mxGeometry>
        </mxCell>
        <mxCell id="nP3ZICuhKG0Z91j2FClM-15" value="" style="endArrow=classic;html=1;rounded=0;fontFamily=Libertinus Serif;" edge="1" parent="1" source="nP3ZICuhKG0Z91j2FClM-3" target="nP3ZICuhKG0Z91j2FClM-5">
          <mxGeometry relative="1" as="geometry">
            <mxPoint x="420" y="530" as="sourcePoint" />
            <mxPoint x="520" y="530" as="targetPoint" />
          </mxGeometry>
        </mxCell>
        <mxCell id="nP3ZICuhKG0Z91j2FClM-16" value="Vektor, Titel,&lt;br&gt;Abstract,&lt;br&gt;Dateipfad" style="edgeLabel;resizable=0;html=1;;align=center;verticalAlign=middle;fontFamily=Libertinus Serif;" connectable="0" vertex="1" parent="nP3ZICuhKG0Z91j2FClM-15">
          <mxGeometry relative="1" as="geometry">
            <mxPoint y="-22" as="offset" />
          </mxGeometry>
        </mxCell>
      </root>
    </mxGraphModel>
  </diagram>
</mxfile>
